# File produced by Open Asset Import Library (http://www.assimp.sf.net)
# (assimp v5.2.0)

mtllib battery.mtl

# 8 vertex positions
v  -0.225880995 0.00395997986 0.0624989793
v  -0.225880995 -0.0701389611 -0.0624989793
v  -0.225880995 -0.0701389611 0.0624989793
v  -0.225880995 0.00395997986 -0.0624989793
v  0.232213005 -0.0701389611 -0.0624989793
v  0.232213005 0.00395997986 -0.0624989793
v  0.232213005 -0.0701389611 0.0624989793
v  0.232213005 0.00395997986 0.0624989793

# 22 UV coordinates
vt 0.843108118 0.272865415 0
vt 1 0 0
vt 1 0.272865415 0
vt 0.686216176 1 0
vt 0.843107879 0 0
vt 0.843108118 1 0
vt 0.843108118 0.545730829 0
vt 1 0.545730829 0
vt 0.686215878 0 0
vt 0.529324114 1 0
vt 0.529323876 0 0
vt 0.264661998 0 0
vt 0.529323876 0.999999881 0
vt 0.264662206 0.999999881 0
vt 0.264661998 0.999999881 0
vt 0 0 0
vt 0.264661789 0 0
vt 0.843108118 0 0
vt 0.686216116 0 0
vt 0.686216116 1 0
vt 0.529323816 0 0
vt 1.73529003e-07 0.999999881 0

# 6 vertex normals
vn -1 0 0
vn 0 0 -1
vn 1 0 0
vn 0 0 1
vn 0 -1 0
vn 0 1 0

# Mesh 'Cube-mesh' with 12 faces
g Cube-mesh
usemtl battery
f  1/1/1 2/2/1 3/3/1
f  4/4/2 5/5/2 2/6/2
f  6/7/3 7/3/3 5/8/3
f  8/9/4 3/10/4 7/11/4
f  5/12/5 3/13/5 2/14/5
f  4/15/6 8/16/6 6/17/6
f  1/1/1 4/18/1 2/2/1
f  4/4/2 6/19/2 5/5/2
f  6/7/3 8/1/3 7/3/3
f  8/9/4 1/20/4 3/10/4
f  5/12/5 7/21/5 3/13/5
f  4/15/6 1/22/6 8/16/6

