# File produced by Open Asset Import Library (http://www.assimp.sf.net)
# (assimp v5.2.0)

mtllib drive.mtl

# 100 vertex positions
v  -0.0777989626 0.0250003301 -0.0374156199
v  -0.0777989626 0.0241036396 -0.0379995108
v  -0.137298197 0.0172204897 -0.0415740013
v  0 0.0250003301 -0.0374156199
v  0 0.0172204897 -0.0415740013
v  -0.0545992814 0.0241036396 -0.0379995108
v  -0.137298197 0.0250003301 -0.0374156199
v  -0.137298197 0.0318193994 -0.0318193994
v  -0.0777989626 0.0318193994 -0.0318193398
v  -0.137298197 0.0374156199 -0.0250003301
v  -0.0777989626 0.0374156199 -0.0250003301
v  -0.137298197 0.0415740013 -0.0172204897
v  -0.0777989626 0.0415740013 -0.0172204897
v  -0.137298197 0.0441347286 -0.00877892878
v  -0.0777989626 0.0441347286 -0.00877892878
v  -0.137298197 0.0449994206 0
v  -0.0777989626 0.0449994206 0
v  -0.137298197 0.0441347286 0.00877892878
v  -0.0777989626 0.0441347286 0.00877892878
v  -0.137298197 0.0415740013 0.0172204897
v  -0.0777989626 0.0415740013 0.0172204897
v  -0.137298197 0.0374156199 0.0250003301
v  -0.0777989626 0.0374156199 0.0250003301
v  -0.137298197 0.0318193398 0.0318193398
v  -0.0777989626 0.0318193398 0.0318193398
v  -0.137298197 0.0250003301 0.0374156199
v  -0.0777989626 0.0250003301 0.0374156199
v  -0.0545992814 0.0250003301 0.0374156199
v  -0.0545992814 0.02410358 0.0379995108
v  0 0.0172204897 0.0415740013
v  -0.0777989626 0.02410358 0.0379995108
v  -0.0545992814 0.0250003301 -0.0374156199
v  -0.0545992814 0.0318193994 -0.0318193398
v  0 0.0318193994 -0.0318193398
v  -0.0545992814 0.0374156199 -0.0250003301
v  0 0.0374156199 -0.0250003301
v  -0.0545992814 0.0415740013 -0.0172204897
v  0 0.0415740013 -0.0172204897
v  -0.0545992814 0.0441347286 -0.00877892878
v  0 0.0441347286 -0.00877892878
v  -0.0545992814 0.0449994206 0
v  0 0.0449994206 0
v  -0.0545992814 0.0441347286 0.00877892878
v  0 0.0441347286 0.00877892878
v  -0.0545992814 0.0415740013 0.0172204897
v  0 0.0415740013 0.0172204897
v  -0.0545992814 0.0374156199 0.0250003301
v  0 0.0374156199 0.0250003301
v  -0.0545992814 0.0318193398 0.0318193994
v  0 0.0318193398 0.0318193994
v  0 0.0250003301 0.0374156199
v  -0.137298197 0.0172204897 0.0415740013
v  -0.137298197 0.00877892878 0.0441347286
v  0 0.00877892878 0.0441347286
v  -0.137298197 0 0.044999361
v  0 0 0.0449994206
v  -0.137298197 -0.00877892878 0.0441347286
v  0 -0.00877892878 0.0441347286
v  -0.137298197 -0.0172204897 0.0415740013
v  0 -0.0172204897 0.0415740013
v  -0.137298197 -0.0250003301 0.0374156199
v  0 -0.0250003301 0.0374156199
v  -0.137298197 -0.0318193994 0.0318193398
v  0 -0.0318193994 0.0318193398
v  -0.137298197 -0.0374156199 0.0250002705
v  0 -0.0374156199 0.0250003301
v  -0.137298197 -0.0415740013 0.0172204897
v  0 -0.0415740013 0.0172204897
v  -0.137298197 -0.0441347286 0.00877892878
v  0 -0.0441347286 0.00877892878
v  -0.137298197 -0.0449994206 0
v  0 -0.0449994206 0
v  -0.137298197 -0.0441347286 -0.00877892878
v  0 -0.0441347286 -0.00877892878
v  -0.137298197 -0.0415740013 -0.0172204897
v  0 -0.0415740013 -0.0172204897
v  -0.137298197 -0.0374156199 -0.0250003301
v  0 -0.0374156199 -0.0250003301
v  -0.137298197 -0.0318193398 -0.0318193994
v  0 -0.0318193398 -0.0318193398
v  -0.137298197 -0.0250003301 -0.0374156199
v  0 -0.0250003301 -0.0374156199
v  -0.137298197 -0.0172204897 -0.0415740609
v  0 -0.0172204897 -0.0415740013
v  -0.137298197 -0.00877892878 -0.0441347286
v  0 -0.00877892878 -0.0441347286
v  -0.137298197 0 -0.0449994206
v  0 0 -0.0449994206
v  -0.137298197 0.00877892878 -0.0441347286
v  0 0.00877892878 -0.0441347286
v  -0.137298197 0 0
v  0 0 0
v  -0.0545992814 0.0442230701 0.0379995108
v  -0.0777989626 0.0442230701 0.0379999802
v  -0.0545992814 0.0442230701 -0.0379994512
v  -0.0777989626 0.0442230701 -0.0379995108
v  -0.0545992814 0.0484989807 -0.0170092508
v  -0.0777989626 0.0484989807 0.0170098506
v  -0.0545992814 0.0484989807 0.0170098506
v  -0.0777989626 0.0484989807 -0.0170092508

# 214 UV coordinates
vt 0.939355791 0.300428212 0
vt 0.94336307 0.300428808 0
vt 0.971326411 0.530193925 0
vt 0.93935591 3.66837003e-06 0
vt 0.97132647 1.01882006e-05 0
vt 0.94336319 0.210841998 0
vt 0.939355791 0.530187428 0
vt 0.905316591 0.530183911 0
vt 0.90531671 0.300424814 0
vt 0.870517015 0.530183673 0
vt 0.870517075 0.300424486 0
vt 0.836294413 0.530186713 0
vt 0.836294472 0.300427496 0
vt 0.80396378 0.530192673 0
vt 0.8039639 0.300433606 0
vt 0.774767876 0.530201674 0
vt 0.774767876 0.300442606 0
vt 0.274471194 0.229797006 0
vt 0.274471194 3.79773992e-05 0
vt 0.299734801 2.30741989e-05 0
vt 0.29973489 0.229782104 0
vt 0.329182893 1.15083003e-05 0
vt 0.329183012 0.229770496 0
vt 0.361683697 3.68266001e-06 0
vt 0.361683786 0.229762703 0
vt 0.395988405 0 0
vt 0.395988405 0.229758993 0
vt 0.430778503 5.75415015e-07 0
vt 0.430778503 0.229759604 0
vt 0.430778593 0.319346309 0
vt 0.434960604 0.319346696 0
vt 0.464717209 0.530188799 0
vt 0.434960514 0.229759902 0
vt 0.93935591 0.210841402 0
vt 0.90531671 0.210838005 0
vt 0.90531671 2.28249007e-07 0
vt 0.870517075 0.210837707 0
vt 0.870517075 0 0
vt 0.836294472 0.210840702 0
vt 0.836294472 2.99238013e-06 0
vt 0.8039639 0.210846901 0
vt 0.803964019 9.09039045e-06 0
vt 0.774767876 0.210855797 0
vt 0.774767876 1.80596999e-05 0
vt 0.274471313 0.530221522 0
vt 0.274471313 0.3193838 0
vt 0.29973489 0.319368809 0
vt 0.29973501 0.530206501 0
vt 0.329183012 0.319357187 0
vt 0.329183102 0.530194879 0
vt 0.361683905 0.319349408 0
vt 0.361683905 0.53018707 0
vt 0.395988494 0.319345713 0
vt 0.395988494 0.530183375 0
vt 0.430778593 0.530183971 0
vt 0.464717001 5.46645015e-06 0
vt 0.496499807 1.42128001e-05 0
vt 0.496499985 0.53019768 0
vt 0.524905622 2.68143976e-05 0
vt 0.524905682 0.530210197 0
vt 0 0.530183673 0
vt 0 0 0
vt 0.0246092007 0 0
vt 0.0246092603 0.530183673 0
vt 0.0535466596 0 0
vt 0.0535466596 0.530183673 0
vt 0.0857000872 0 0
vt 0.0857001469 0.530183673 0
vt 0.119834103 0 0
vt 0.1198342 0.530183673 0
vt 0.154636905 0 0
vt 0.154636905 0.530183673 0
vt 0.188770905 0 0
vt 0.188770995 0.530183673 0
vt 0.220924407 0 0
vt 0.220924407 0.530183673 0
vt 0.249861807 0 0
vt 0.249861896 0.530183673 0
vt 0.274471104 0 0
vt 0.274471194 0.530183673 0
vt 0.52490592 0.530183971 0
vt 0.524905682 0 0
vt 0.5538432 0 0
vt 0.553843379 0.530183971 0
vt 0.585996628 0 0
vt 0.585996926 0.530183971 0
vt 0.620130718 0 0
vt 0.620130897 0.530183911 0
vt 0.654933512 0 0
vt 0.654933691 0.530183911 0
vt 0.689067483 0 0
vt 0.689067721 0.530183911 0
vt 0.72122103 0 0
vt 0.721221209 0.530183911 0
vt 0.750158429 0 0
vt 0.750158727 0.530183911 0
vt 0.774767697 0 0
vt 0.774767876 0.530183911 0
vt 1 1.95370994e-05 0
vt 1 0.530203223 0
vt 0.296691209 0.536867082 0
vt 0.330825299 0.530221522 0
vt 0.348226696 0.70315212 0
vt 0.264537811 0.549902976 0
vt 0.191655695 0.621238828 0
vt 0.210991099 0.592915177 0
vt 0.235600293 0.568828106 0
vt 0.171547607 0.720184326 0
vt 0.171547607 0.686119974 0
vt 0.178337306 0.65271008 0
vt 0.210991099 0.813389003 0
vt 0.191655695 0.785065472 0
vt 0.178337306 0.75359422 0
vt 0.296691298 0.869437218 0
vt 0.264537811 0.856401324 0
vt 0.235600293 0.837476194 0
vt 0.399762005 0.869437218 0
vt 0.365628004 0.876082778 0
vt 0.330825299 0.876082778 0
vt 0.485462308 0.813389003 0
vt 0.46085301 0.837476075 0
vt 0.431915611 0.856401324 0
vt 0.524905682 0.720184326 0
vt 0.518116117 0.7535941 0
vt 0.504797578 0.785065472 0
vt 0.504797578 0.621238708 0
vt 0.518115997 0.65271008 0
vt 0.524905682 0.686119914 0
vt 0.431915611 0.549902976 0
vt 0.46085301 0.568828106 0
vt 0.485462189 0.592915177 0
vt 0.365628004 0.530221522 0
vt 0.399762005 0.536867082 0
vt 0.753120124 0.536867082 0
vt 0.785273612 0.549902916 0
vt 0.701584816 0.70315212 0
vt 0.718985975 0.530221522 0
vt 0.617895722 0.549902976 0
vt 0.650049329 0.536867082 0
vt 0.6841833 0.530221522 0
vt 0.545013726 0.621238828 0
vt 0.564349115 0.592915297 0
vt 0.588958323 0.568828225 0
vt 0.524905682 0.720184386 0
vt 0.524905682 0.686119974 0
vt 0.531695306 0.652710199 0
vt 0.564349174 0.813389122 0
vt 0.545013785 0.785065711 0
vt 0.531695426 0.75359422 0
vt 0.650049508 0.869437218 0
vt 0.617895901 0.856401384 0
vt 0.588958502 0.837476313 0
vt 0.753120184 0.869437218 0
vt 0.718986213 0.876082778 0
vt 0.684183478 0.876082778 0
vt 0.838820398 0.813389003 0
vt 0.814211071 0.837476075 0
vt 0.785273671 0.856401324 0
vt 0.878263772 0.720184326 0
vt 0.871474206 0.7535941 0
vt 0.858155727 0.785065472 0
vt 0.858155727 0.621238708 0
vt 0.871474087 0.65271008 0
vt 0.878263772 0.686119914 0
vt 0.814211011 0.568828106 0
vt 0.838820279 0.592915177 0
vt 0.374981612 0.319314212 0
vt 0.374982804 0.229727507 0
vt 0.157604396 0.619770527 0
vt 0.0962458178 0.619770527 0
vt 0.157604396 0.530183673 0
vt 0.0962457582 0.530183792 0
vt 0.881801605 0.532476008 0
vt 0.878263772 0.530221522 0
vt 0.957640111 0.530221522 0
vt 0.957640111 0.823695302 0
vt 0.878263772 0.823695421 0
vt 0.881801605 0.821440816 0
vt 0.908704519 0.799830616 0
vt 0.930783093 0.773498416 0
vt 0.947188973 0.743456304 0
vt 0.957291722 0.710858822 0
vt 0.960703015 0.676958382 0
vt 0.957291722 0.643058121 0
vt 0.947188973 0.61046052 0
vt 0.930782974 0.580418408 0
vt 0.9087044 0.554086328 0
vt 0.0658051297 0.554048479 0
vt 0.0168694798 0.530183673 0
vt 0.0927079916 0.532438278 0
vt 0.0962457582 0.530183673 0
vt 0.0047112098 0.897306085 0
vt 0.0962457582 1 0
vt 0.00471722987 0.999970615 0
vt 0.0138066402 0.676920593 0
vt 0.0172179304 0.643020272 0
vt 0.0437265001 0.580380619 0
vt 0.0273206197 0.610422671 0
vt 0.0172179304 0.710820973 0
vt 0.0168695394 0.82365942 0
vt 0.0273206197 0.743418515 0
vt 0.0437265001 0.773460627 0
vt 0.0658051297 0.799792707 0
vt 0.0927079916 0.821403027 0
vt 0.0962457582 0.823657513 0
vt 0.0962457582 0.823688805 0
vt 0.00471717119 0.82365942 0
vt 0.307994395 0.229759693 0
vt 0.974509597 0.611276329 0
vt 0.974509716 0.742642879 0
vt 0 0.742605209 0
vt 0 0.61123848 0
vt 0.0962396786 0.897335529 0
vt 0.307994395 0.319346309 0

# 126 vertex normals
vn -0.00580126001 0.58764112 -0.809100986
vn -0.00354635692 0.378177702 -0.925726175
vn -7.20234966e-05 0.382677197 -0.923882186
vn 0.000837967964 0.556016803 -0.831170619
vn 0.000772306987 0.382189214 -0.92408371
vn 4.43989993e-05 0.376294702 -0.926500082
vn 0 0.555570185 -0.831469715
vn 0 0.707106888 -0.707106709
vn 0 0.707107186 -0.707106411
vn 0 0.831469595 -0.555570304
vn 0 0.831469774 -0.555570126
vn 0 0.923879683 -0.382683188
vn 0 0.98078531 -0.195090204
vn 0 0.98078531 -0.1950901
vn 0 1 0
vn 0 0.98078531 0.195090607
vn 0 0.98078531 0.195090696
vn 0 0.923879623 0.382683486
vn 0 0.923879504 0.382683486
vn 0 0.831469715 0.555570126
vn 0 0.707106471 0.707107127
vn 0 0.707106888 0.707106709
vn -0.00076975202 0.555979609 0.831195593
vn 0 0.590911806 0.806736171
vn 0.00626462605 0.587351978 0.809307396
vn 0.00389081193 0.378344297 0.925656915
vn 8.52400917e-05 0.382675201 0.923883021
vn -3.44787986e-05 0.376292914 0.926500916
vn 0 0.590910971 -0.806736708
vn 0 0.707107186 -0.707106471
vn 0 0.707107008 -0.707106709
vn 0 0.831469715 -0.555570185
vn 0 0.923879802 -0.382683098
vn 0 0.923879504 0.382683605
vn 0 0.831469715 0.555570185
vn 0 0.70710659 0.707107008
vn 0 0.707107127 0.707106471
vn 0 0.555569828 0.831469893
vn -0.000714403985 0.382229507 0.92406708
vn 0 0.195089996 0.980785429
vn 0 0.195090398 0.98078531
vn 0 0 1
vn 0 -0.195090696 0.98078531
vn 0 -0.382683188 0.923879683
vn 0 -0.382684201 0.923879206
vn 0 -0.555569112 0.83147037
vn 0 -0.555570602 0.831469417
vn 0 -0.707106411 0.707107186
vn 0 -0.707106829 0.707106829
vn 0 -0.831469893 0.555570006
vn 0 -0.831469893 0.555569887
vn 0 -0.923879802 0.382683009
vn 0 -0.923879802 0.38268289
vn 0 -0.98078531 0.195090204
vn 0 -0.98078531 0.1950901
vn 0 -1 0
vn 0 -0.98078531 -0.195090696
vn 0 -0.98078531 -0.195090607
vn 0 -0.923879623 -0.382683396
vn 0 -0.923879504 -0.382683486
vn 0 -0.831469715 -0.555570126
vn 0 -0.831469774 -0.555570126
vn 0 -0.707106411 -0.707107186
vn 0 -0.707106709 -0.707107008
vn 0 -0.555570126 -0.831469774
vn 0 -0.555570304 -0.831469595
vn 0 -0.382683307 -0.923879623
vn 0 -0.382683009 -0.923879683
vn 0 -0.195090204 -0.98078531
vn 0 -0.195089996 -0.980785429
vn 0 0 -1
vn 0 0.195090801 -0.98078531
vn 0 0.195090398 -0.98078531
vn -1 0 0
vn -1 0 7.3671697e-07
vn -1 0 -1.47343002e-07
vn -1 0 1.47343002e-07
vn -1 0 8.8406e-07
vn -1 0 -5.8937303e-07
vn -1 0 2.94686998e-07
vn -1 0 3.86776009e-07
vn -1 0 4.4203e-07
vn -1 0 5.89373997e-07
vn -1 0 -3.4994099e-07
vn -1 0 -2.98689002e-07
vn -1 0 -2.94686004e-07
vn -1 0 2.94687993e-07
vn 1 0 0
vn 9.40646987e-06 -1.11165e-05 1
vn 2.08747006e-05 -2.44421008e-05 1
vn 1.60575013e-07 2.49408998e-07 -1
vn 1.60575013e-07 3.85383998e-07 -1
vn 1 0 1.52164002e-05
vn 1 0 1.98207999e-05
vn 1 9.77317086e-07 2.01088e-07
vn 1 7.98743031e-07 3.39168992e-07
vn 1 0 7.43277997e-06
vn 1 0 5.7924899e-06
vn 1 0 1.96938998e-07
vn 1 -2.93947011e-07 1.71158007e-07
vn 1 2.55390006e-07 0
vn 1 1.18102002e-06 2.60935991e-07
vn 1 9.01836029e-06 0
vn 1 -1.18102002e-06 0
vn 1 -2.55390006e-07 4.14503006e-07
vn 1 2.93946016e-07 3.53323003e-07
vn 1 0 -6.22804009e-07
vn -1 0 2.44478997e-07
vn -1 0 2.22686012e-07
vn -1 -2.36200003e-06 -0
vn -1 -4.99069017e-07 -0
vn -1 -7.78466017e-07 -0
vn -1 -5.0122901e-07 -0
vn -1 -3.94950007e-07 2.28898003e-07
vn -1 -3.71061986e-07 -1.70043995e-06
vn -1 -3.70301024e-07 -2.47749995e-06
vn 0 0.979875505 -0.199609905
vn 0 0.979875505 -0.199610099
vn 1.89015009e-06 0.979874671 0.199613899
vn 2.09217001e-06 0.979874671 0.199613705
vn 3.98228985e-06 0.979875207 0.199611604
vn 1 9.1783395e-06 -1.85348995e-07
vn 1 8.37119933e-06 2.78022014e-07
vn -1 -2.12898999e-06 -0
vn 0 0.979875505 -0.199609801
vn 0 0.979874194 0.199616104

# Mesh 'AD3-mesh' with 196 faces
g AD3-mesh
usemtl drive
f  1/1/1 2/2/2 3/3/3
f  4/4/4 5/5/5 6/6/6
f  3/3/3 7/7/7 1/1/1
f  1/1/1 7/7/7 8/8/8
f  1/1/1 8/8/8 9/9/9
f  9/9/9 8/8/8 10/10/10
f  9/9/9 10/10/10 11/11/11
f  11/11/11 10/10/10 12/12/12
f  11/11/11 12/12/12 13/13/12
f  13/13/12 12/12/12 14/14/13
f  13/13/12 14/14/13 15/15/14
f  15/15/14 14/14/13 16/16/15
f  15/15/14 16/16/15 17/17/15
f  17/18/15 16/19/15 18/20/16
f  17/18/15 18/20/16 19/21/17
f  19/21/17 18/20/16 20/22/18
f  19/21/17 20/22/18 21/23/19
f  21/23/19 20/22/18 22/24/20
f  21/23/19 22/24/20 23/25/20
f  23/25/20 22/24/20 24/26/21
f  23/25/20 24/26/21 25/27/22
f  25/27/22 24/26/21 26/28/23
f  25/27/22 26/28/23 27/29/24
f  28/30/25 29/31/26 30/32/27
f  30/32/27 29/31/26 31/33/28
f  6/6/6 32/34/29 4/4/4
f  4/4/4 32/34/29 33/35/30
f  4/4/4 33/35/30 34/36/31
f  34/36/31 33/35/30 35/37/32
f  34/36/31 35/37/32 36/38/11
f  36/38/11 35/37/32 37/39/12
f  36/38/11 37/39/12 38/40/33
f  38/40/33 37/39/12 39/41/13
f  38/40/33 39/41/13 40/42/13
f  40/42/13 39/41/13 41/43/15
f  40/42/13 41/43/15 42/44/15
f  42/45/15 41/46/15 43/47/16
f  42/45/15 43/47/16 44/48/16
f  44/48/16 43/47/16 45/49/34
f  44/48/16 45/49/34 46/50/34
f  46/50/34 45/49/34 47/51/35
f  46/50/34 47/51/35 48/52/20
f  48/52/20 47/51/35 49/53/36
f  48/52/20 49/53/36 50/54/37
f  50/54/37 49/53/36 28/30/25
f  50/54/37 28/30/25 51/55/38
f  51/55/38 28/30/25 30/32/27
f  27/29/24 26/28/23 31/33/28
f  31/33/28 26/28/23 52/56/39
f  31/33/28 52/56/39 30/32/27
f  30/32/27 52/56/39 53/57/40
f  30/32/27 53/57/40 54/58/41
f  54/58/41 53/57/40 55/59/42
f  54/58/41 55/59/42 56/60/42
f  56/61/42 55/62/42 57/63/43
f  56/61/42 57/63/43 58/64/43
f  58/64/43 57/63/43 59/65/44
f  58/64/43 59/65/44 60/66/45
f  60/66/45 59/65/44 61/67/46
f  60/66/45 61/67/46 62/68/47
f  62/68/47 61/67/46 63/69/48
f  62/68/47 63/69/48 64/70/49
f  64/70/49 63/69/48 65/71/50
f  64/70/49 65/71/50 66/72/51
f  66/72/51 65/71/50 67/73/52
f  66/72/51 67/73/52 68/74/53
f  68/74/53 67/73/52 69/75/54
f  68/74/53 69/75/54 70/76/55
f  70/76/55 69/75/54 71/77/56
f  70/76/55 71/77/56 72/78/56
f  72/78/56 71/77/56 73/79/57
f  72/78/56 73/79/57 74/80/58
f  74/81/58 73/82/57 75/83/59
f  74/81/58 75/83/59 76/84/60
f  76/84/60 75/83/59 77/85/61
f  76/84/60 77/85/61 78/86/62
f  78/86/62 77/85/61 79/87/63
f  78/86/62 79/87/63 80/88/64
f  80/88/64 79/87/63 81/89/65
f  80/88/64 81/89/65 82/90/66
f  82/90/66 81/89/65 83/91/67
f  82/90/66 83/91/67 84/92/68
f  84/92/68 83/91/67 85/93/69
f  84/92/68 85/93/69 86/94/70
f  86/94/70 85/93/69 87/95/71
f  86/94/70 87/95/71 88/96/71
f  88/96/71 87/95/71 89/97/72
f  88/96/71 89/97/72 90/98/73
f  90/99/73 89/100/72 3/3/3
f  90/99/73 3/3/3 5/5/5
f  5/5/5 3/3/3 2/2/2
f  5/5/5 2/2/2 6/6/6
f  71/101/74 69/102/74 91/103/74
f  71/101/74 91/103/74 73/104/75
f  79/105/76 77/106/77 91/103/74
f  91/103/74 77/106/77 75/107/78
f  91/103/74 75/107/78 73/104/75
f  85/108/79 83/109/79 91/103/74
f  91/103/74 83/109/79 81/110/76
f  91/103/74 81/110/76 79/105/76
f  3/111/74 89/112/80 91/103/74
f  91/103/74 89/112/80 87/113/74
f  91/103/74 87/113/74 85/108/79
f  10/114/77 8/115/77 91/103/74
f  91/103/74 8/115/77 7/116/76
f  91/103/74 7/116/76 3/111/74
f  16/117/81 14/118/82 91/103/74
f  91/103/74 14/118/82 12/119/83
f  91/103/74 12/119/83 10/114/77
f  22/120/80 20/121/82 91/103/74
f  91/103/74 20/121/82 18/122/84
f  91/103/74 18/122/84 16/117/81
f  52/123/80 26/124/80 91/103/74
f  91/103/74 26/124/80 24/125/79
f  91/103/74 24/125/79 22/120/80
f  57/126/85 55/127/74 91/103/74
f  91/103/74 55/127/74 53/128/80
f  91/103/74 53/128/80 52/123/80
f  63/129/86 61/130/74 91/103/74
f  91/103/74 61/130/74 59/131/87
f  91/103/74 59/131/87 57/126/85
f  69/102/74 67/132/76 91/103/74
f  91/103/74 67/132/76 65/133/77
f  91/103/74 65/133/77 63/129/86
f  72/134/88 74/135/88 92/136/88
f  72/134/88 92/136/88 70/137/88
f  64/138/88 66/139/88 92/136/88
f  92/136/88 66/139/88 68/140/88
f  92/136/88 68/140/88 70/137/88
f  58/141/88 60/142/88 92/136/88
f  92/136/88 60/142/88 62/143/88
f  92/136/88 62/143/88 64/138/88
f  30/144/88 54/145/88 92/136/88
f  92/136/88 54/145/88 56/146/88
f  92/136/88 56/146/88 58/141/88
f  48/147/88 50/148/88 92/136/88
f  92/136/88 50/148/88 51/149/88
f  92/136/88 51/149/88 30/144/88
f  42/150/88 44/151/88 92/136/88
f  92/136/88 44/151/88 46/152/88
f  92/136/88 46/152/88 48/147/88
f  36/153/88 38/154/88 92/136/88
f  92/136/88 38/154/88 40/155/88
f  92/136/88 40/155/88 42/150/88
f  5/156/88 4/157/88 92/136/88
f  92/136/88 4/157/88 34/158/88
f  92/136/88 34/158/88 36/153/88
f  86/159/88 88/160/88 92/136/88
f  92/136/88 88/160/88 90/161/88
f  92/136/88 90/161/88 5/156/88
f  80/162/88 82/163/88 92/136/88
f  92/136/88 82/163/88 84/164/88
f  92/136/88 84/164/88 86/159/88
f  74/135/88 76/165/88 92/136/88
f  92/136/88 76/165/88 78/166/88
f  92/136/88 78/166/88 80/162/88
f  29/31/26 93/167/89 31/33/28
f  31/33/28 93/167/89 94/168/90
f  95/169/91 6/170/6 96/171/92
f  96/171/92 6/170/6 2/172/2
f  32/173/93 6/174/94 95/175/95
f  93/176/96 29/177/97 28/178/98
f  28/178/98 49/179/99 93/176/96
f  93/176/96 49/179/99 47/180/100
f  93/176/96 47/180/100 45/181/101
f  45/181/101 43/182/102 93/176/96
f  93/176/96 43/182/102 41/183/103
f  95/175/95 41/183/103 39/184/104
f  95/175/95 39/184/104 37/185/105
f  37/185/105 35/186/106 95/175/95
f  95/175/95 35/186/106 33/187/107
f  95/175/95 33/187/107 32/173/93
f  9/188/74 96/189/74 1/190/74
f  1/190/74 96/189/74 2/191/74
f  97/192/15 98/193/15 99/194/15
f  17/195/108 96/189/74 15/196/109
f  9/188/74 11/197/74 96/189/74
f  96/189/74 11/197/74 13/198/74
f  96/189/74 13/198/74 15/196/109
f  17/195/108 19/199/110 94/200/111
f  94/200/111 19/199/110 21/201/112
f  94/200/111 21/201/112 23/202/113
f  23/202/113 25/203/114 94/200/111
f  94/200/111 25/203/114 27/204/115
f  94/200/111 27/204/115 31/205/116
f  96/206/117 97/192/117 95/207/118
f  93/167/119 98/208/120 94/168/121
f  97/209/122 99/210/123 41/183/103
f  98/211/124 100/212/124 17/195/108
f  97/192/15 100/213/15 98/193/15
f  96/206/117 100/213/125 97/192/117
f  93/167/119 99/214/126 98/208/120
f  99/210/123 93/176/96 41/183/103
f  41/183/103 95/175/95 97/209/122
f  100/212/124 96/189/74 17/195/108
f  17/195/108 94/200/111 98/211/124

