# File produced by Open Asset Import Library (http://www.assimp.sf.net)
# (assimp v5.2.0)

mtllib handle.mtl

# 64 vertex positions
v  0.356658906 0.161270306 0.0468546711
v  0.348634601 0.168919593 0.0440809093
v  0.356660604 0.1612688 0.0468552709
v  0.348634601 0.172917902 0.0467697904
v  0.348634601 0.168919593 -0.0440809093
v  0.39665401 0.168919593 -0.0440809093
v  0.4038001 0.121582597 -0.0648383424
v  0.39665401 0.172917902 -0.0467697904
v  0.39665401 0.168919593 0.0440809093
v  0.388628006 0.1612688 0.0468552709
v  0.4038001 0.122122303 0.0610506497
v  0.379467696 0.154170305 0.04942929
v  0.388744086 0.161379501 0.0468150899
v  0.388628006 0.1612688 -0.0468552709
v  0.388629586 0.161270306 -0.0468546711
v  0.348634601 0.172917902 -0.0467697904
v  0.39665401 0.172917902 0.0467697904
v  0.4038001 0.121582597 0.0648383424
v  0.408862293 0.0767509863 0.0610506497
v  0.335256696 0.0970047712 0.0647619888
v  0.309053391 0.0730028674 0.0646873713
v  0.408862293 0.0730028674 0.0646873713
v  0.379467696 0.154170305 -0.04942929
v  0.356660604 0.1612688 -0.0468552709
v  0.379467696 0.154170305 0.0533683784
v  0.379467696 0.154170305 -0.0533683784
v  0.361268997 0.154170305 -0.0533683784
v  0.325100213 0.121582597 -0.0648383424
v  0.325100213 0.122122303 -0.0610506497
v  0.325100213 0.121582597 0.0648383424
v  0.309053391 0.0767509863 -0.0610506497
v  0.408862293 0.0767509863 -0.0427272283
v  0.408862293 0.0767509863 -0.0610506497
v  0.408862293 0.0730028674 -0.0427272283
v  0.408862293 0.0730028674 -0.0646873713
v  0.335256696 0.0970047712 -0.0647619292
v  0.38714841 0.0970047712 -0.0647619292
v  0.335256696 0.0970047712 0.0610506497
v  0.38714841 0.0970047712 0.0610506497
v  0.335256696 0.0970047712 -0.0610506497
v  0.309053391 0.0767509863 0.0610506497
v  0.309053391 0.0730028674 -0.0427272283
v  0.309053391 0.0767509863 -0.0427272283
v  0.408862293 0.0730028674 0.0427272283
v  0.309053391 0.0767509863 0.0427272283
v  0.408862293 0.0767509863 0.0427272283
v  0.309053391 0.0730028674 0.0427272283
v  0.309053391 0.0730028674 -0.0646873713
v  0.361268997 0.154170305 -0.04942929
v  0.361268997 0.154170305 0.04942929
v  0.383773595 0.122122303 -0.0610506497
v  0.38714841 0.0970047712 -0.0610506497
v  0.383846104 0.121582597 -0.0648383424
v  0.383773595 0.122122303 0.0610506497
v  0.383846104 0.121582597 0.0648383424
v  0.346686095 0.122122303 0.0610506497
v  0.346440494 0.121582597 0.0648383424
v  0.346686095 0.122122303 -0.0610506497
v  0.346440494 0.121582597 -0.0648383424
v  0.356544405 0.161379501 -0.0468150899
v  0.4038001 0.122122303 -0.0610506497
v  0.325100213 0.122122303 0.0610506497
v  0.38714841 0.0970047712 0.0647619888
v  0.361268997 0.154170305 0.0533683784

# 170 UV coordinates
vt 0 0 0
vt 0.327174991 0.0548706017 0
vt 0.3152982 0.330765605 0
vt 0.3152982 0.0630362034 0
vt 0.623511314 0.0630362034 0
vt 0.4769862 0 0
vt 0.635738373 0.0548706017 0
vt 0.623511314 0.330765694 0
vt 0.659683228 0.0614473782 0
vt 0.782200813 0.0153728696 0
vt 0.681899607 0.0892653987 0
vt 0.407766104 0.697022915 0
vt 0.408122301 0.981480598 0
vt 0.408117414 0.98147893 0
vt 0 0.980961502 0
vt 0.147325799 0.696901023 0
vt 0.147325799 0.980961502 0
vt 0.4769862 0.393801808 0
vt 0.338637114 0.382299304 0
vt 0.478636593 0.382299304 0
vt 0.229139104 0.473375887 0
vt 0.302656889 0.393801808 0
vt 0.302656889 0.696900904 0
vt 0.675993204 0.607635498 0
vt 0.653776824 0.635453522 0
vt 0.653776824 0.538374901 0
vt 0 0.659826875 0
vt 0 0.514001608 0
vt 0.0561884008 0.607635498 0
vt 0.383363485 0.483067214 0
vt 0.383363485 0.538332999 0
vt 0.327174991 0.576701224 0
vt 0.156621605 0.393801808 0
vt 0.158224702 0.382299304 0
vt 0.156621605 0 0
vt 0.302656889 1 0
vt 0.246439904 0.696900904 0
vt 0.3026568 0.696900904 0
vt 0.338637203 0.0115025602 0
vt 0.327175111 0.0671469495 0
vt 0.327175111 0.000458603987 0
vt 0.55631417 0.617326915 0
vt 0.55631417 0.459742606 0
vt 0.62983191 0.393801808 0
vt 0.0111337304 0.382299304 0
vt 0.859121501 0.223525003 0
vt 0.859121501 0.0659407303 0
vt 0.921147108 0 0
vt 0.853214979 0.473375887 0
vt 0.915240586 0.393801808 0
vt 0.915240586 0.696900904 0
vt 0.0111337304 0.0115025602 0
vt 0 0.000458603987 0
vt 0.994093478 0.393801808 0
vt 0.982615173 0.696900904 0
vt 0.982615173 0.393801808 0
vt 1 0 0
vt 0.988521576 0.303099096 0
vt 0.988521576 0 0
vt 0 0.0671469495 0
vt 0.915240705 0.696900904 0
vt 0.327174991 0.326654911 0
vt 0.338637203 0.326654911 0
vt 0.921146989 0 0
vt 0.921147108 0.303099096 0
vt 0 0.326654911 0
vt 0.0111337304 0.326654911 0
vt 0.358873904 1 0
vt 0.302657008 1 0
vt 0.65990901 0.303099006 0
vt 0.647823572 0.358364791 0
vt 0.647823572 0.303099006 0
vt 0.635738373 0.303099006 0
vt 0.635738373 0.358364791 0
vt 0.502701819 0.800003707 0
vt 0.518058419 0.875339627 0
vt 0.4916403 0.803897202 0
vt 0.52911979 0.774465978 0
vt 0.532629907 0.875202775 0
vt 0.518058419 0.770572424 0
vt 0.476243705 0.806913793 0
vt 0.4916403 0.8880288 0
vt 0.465153307 0.810780525 0
vt 0.442883104 0.780194879 0
vt 0.453160197 0.887574375 0
vt 0.431571692 0.777017474 0
vt 0.555862904 0.696900904 0
vt 0.567249417 0.854485214 0
vt 0.555862904 0.854485273 0
vt 0.54447639 0.696900904 0
vt 0.555863023 0.854485214 0
vt 0.54447639 0.854485273 0
vt 0.408122301 0.707255304 0
vt 0.431571603 0.696900904 0
vt 0.431571603 0.973976672 0
vt 0.383498102 0.696900904 0
vt 0.383498102 0.981480598 0
vt 0.383493304 0.98147893 0
vt 0.245403394 0.696900904 0
vt 0.147325799 0.981480598 0
vt 0.147325799 0.696900904 0
vt 0.653772116 0.635458291 0
vt 0.629832029 0.659826875 0
vt 0.653430402 0.53802228 0
vt 0.659678519 0.158530802 0
vt 0.635738373 0.182899401 0
vt 0.659336805 0.0610948205 0
vt 0.30372569 0.404156208 0
vt 0.327174991 0.393801808 0
vt 0.327174991 0.670877695 0
vt 0.327174991 0.338931203 0
vt 0.478636593 0.0115025602 0
vt 0.635738313 0.338931203 0
vt 0.782200813 0.254368395 0
vt 0.659683228 0.158526003 0
vt 0.681899607 0.144531101 0
vt 0.782200813 0.188816503 0
vt 0.782200813 0.0761891603 0
vt 0.635738373 0.0370740183 0
vt 0.383498102 0.973055482 0
vt 0.408122301 0.696900904 0
vt 0 0.696900904 0
vt 0.327174991 0.39334321 0
vt 0.153856993 0.681527972 0
vt 0.229139104 0.630960226 0
vt 0.153856993 0.620931923 0
vt 0.153856993 0.507338703 0
vt 0.153856993 0.44253251 0
vt 0.77629441 0.681527972 0
vt 0.77629441 0.620711803 0
vt 0.77629441 0.44253251 0
vt 0.77629441 0.508084416 0
vt 0.675993204 0.552369773 0
vt 0.629832029 0.514001608 0
vt 0.0561884008 0.552369773 0
vt 0.327174991 0.430875808 0
vt 0.481032014 0.409174711 0
vt 0.481032014 0.469770789 0
vt 0.481032103 0.583364129 0
vt 0.481032103 0.648170173 0
vt 0.158224702 0.0115025602 0
vt 0.246439904 1 0
vt 0.338637203 0.0671469495 0
vt 0.629832029 0.696900904 0
vt 0 0.39334321 0
vt 0.921146989 0.303099006 0
vt 0.853214979 0.630960226 0
vt 0.994093597 0.696900904 0
vt 1 0.303099096 0
vt 0.0111337304 0.0671469495 0
vt 0.988521516 0 0
vt 0.358873904 0.696900904 0
vt 0.65990901 0.358364791 0
vt 0.506896913 0.877568722 0
vt 0.506211817 0.699266791 0
vt 0.518058419 0.696900904 0
vt 0.533314824 0.696900904 0
vt 0.54447639 0.699129999 0
vt 0.54447639 0.877568722 0
vt 0.480449587 0.890109777 0
vt 0.479762912 0.699109674 0
vt 0.4916403 0.696900904 0
vt 0.441860586 0.696900904 0
vt 0.453160197 0.69828999 0
vt 0.465153307 0.889048815 0
vt 0.567249417 0.696900904 0
vt 0.555863023 0.696900904 0
vt 0.358873904 0.973055482 0
vt 0.383141905 0.697022796 0
vt 0.245403305 0.981480718 0

# 88 vertex normals
vn 0 0 -1
vn -1 0 0
vn 0.98685652 0.0901786014 0.134096995
vn 1 0 0
vn 4.6941301e-07 -0.340901285 -0.94009912
vn 0.695371926 -0.718650103 -3.53561991e-05
vn 0 1 0
vn 0.993709505 0.110870801 0.0157892704
vn 0 -0.00310850097 0.999995172
vn 0 -0.340900391 0.940099418
vn 0 0.3320072 0.943276882
vn 0.987030029 0.158933505 0.0226302706
vn 0 0.332008094 -0.943276525
vn -0.881502092 0.467458308 -0.0666090176
vn -0.88017261 0.264881104 -0.393870711
vn 0 -0.00310724904 -0.999995172
vn -0.941710889 0.333060294 -0.047451131
vn 0.989056706 0.102734298 -0.105889902
vn 0 9.21415051e-07 1
vn -0.904033422 0.297665387 0.306788504
vn 0 0 1
vn 0 -1 0
vn 0 1 3.78288996e-06
vn 0.991094291 0.133161902 0
vn 0.991094172 0.133162305 0
vn -0.910198987 0.414171487 0
vn -0.910199106 0.414171308 0
vn 0.689986229 -0.723822474 0
vn -0.693398297 -0.720554471 -0
vn 2.22168993e-07 -0.340903193 0.940098524
vn -2.22168993e-07 -0.340901911 -0.940098882
vn -0.689984918 -0.723823786 -0
vn 0.987030029 0.158933505 -0.0226302706
vn -7.88001046e-07 -0.340901285 -0.94009912
vn 0.00352692604 -0.34074831 -0.940147877
vn 0 -0.340900391 -0.940099418
vn 0 -0.340900302 -0.940099478
vn -7.03432961e-05 -0.340988904 -0.94006741
vn 1.03236994e-06 -0.340902209 -0.940098882
vn 0.689983904 -0.723824918 -4.48614998e-07
vn 0.6900208 -0.723789573 0
vn 0.989056706 0.102734298 0.105889902
vn 2.59199993e-07 -0.00310868002 0.999995172
vn 0 -0.00310838199 0.999995172
vn 0 -0.00310796406 0.999995172
vn 3.81610022e-07 -0.340900004 0.940099597
vn -0.00160449697 -0.345367193 0.938466311
vn 0 -0.340900302 0.940099478
vn 0 -0.340901613 0.94009912
vn 6.39902055e-07 -0.340900391 0.940099418
vn 0.000174353001 -0.340860993 0.940113723
vn -7.99407019e-07 -0.340900302 0.940099478
vn 2.01526007e-07 0.332007915 0.943276703
vn 0 0.3320072 0.943277001
vn 0 0.332007408 0.943276823
vn 0.98685652 0.0901786014 -0.134096995
vn 2.16114998e-07 0.33200711 -0.943276882
vn 0 0.3320072 -0.943276823
vn 0 0.332008004 -0.943276584
vn -0.88017261 0.264881104 0.393870711
vn -0.881502092 0.467458308 0.0666090176
vn 5.42952023e-07 -0.00310861995 -0.999995172
vn 0 -0.00310885906 -0.999995172
vn 0 -0.00310909702 -0.999995172
vn -0.904033422 0.297665387 -0.306788504
vn 0.993709505 0.110870801 -0.0157892704
vn -1.91491011e-07 0 1
vn 0 -6.36443986e-07 1
vn 0 -4.29431026e-07 1
vn -0.941710889 0.333060294 0.047451131
vn 0 1 3.78289974e-06
vn 0.991094172 0.133162796 0
vn 0.991094291 0.133161604 0
vn 0.99109441 0.133161694 0
vn 0.991094172 0.133162394 -1.04533001e-06
vn -0.910198808 0.414171785 0
vn -0.910199106 0.414171308 1.44603e-05
vn -0.910198808 0.414171994 0
vn -0.910198689 0.414171904 0
vn -0.910199106 0.414171398 0
vn -1.25918007e-07 -1 -0
vn -0.689983904 -0.723824918 -0
vn -0.690117896 -0.723697007 2.8741502e-07
vn -1.80409003e-07 -1 -0
vn 0 -0.340881795 0.940106213
vn 0 -0.337132007 0.941457391
vn 2.22734002e-07 -0.340990901 -0.940066576
vn 2.74933996e-07 -0.34112069 -0.940019608

# Mesh 'Cube-mesh' with 2 faces
g Cube-mesh
usemtl handle
l  1/1 2/1
l  1/1 3/1

# Mesh 'Cube-mesh' with 142 faces
g Cube-mesh
usemtl handle
f  4/2/2 5/3/2 2/4/2
f  6/5/3 7/6/3 8/7/3
f  8/7/4 9/8/4 6/5/4
f  10/9/5 11/10/5 12/11/5
f  13/12/6 14/13/6 15/14/6
f  16/15/7 17/16/7 8/17/7
f  18/18/8 19/19/8 11/20/8
f  20/21/9 21/22/9 22/23/9
f  23/24/10 14/25/10 24/26/10
f  17/27/11 4/28/11 25/29/11
f  9/8/12 18/18/12 11/20/12
f  26/30/13 27/31/13 16/32/13
f  5/3/14 28/33/14 29/34/14
f  2/4/15 30/35/15 4/2/15
f  31/36/7 32/37/7 33/38/7
f  33/39/4 34/40/4 35/41/4
f  36/42/16 37/43/16 35/44/16
f  28/33/17 31/45/17 29/34/17
f  38/46/1 39/47/1 19/48/1
f  7/6/18 33/39/18 35/41/18
f  40/49/19 31/50/19 33/51/19
f  30/35/20 41/52/20 21/53/20
f  42/54/21 32/55/21 43/56/21
f  44/57/1 45/58/1 46/59/1
f  41/52/2 47/60/2 21/53/2
f  21/50/22 44/55/22 22/61/22
f  19/19/4 44/62/4 46/63/4
f  35/64/22 42/58/22 48/65/22
f  31/45/2 42/66/2 43/67/2
f  19/23/7 45/68/7 41/69/7
f  26/70/7 49/71/7 23/72/7
f  50/73/23 25/71/23 12/74/23
f  51/75/24 52/76/24 53/77/24
f  54/78/25 25/79/25 55/80/25
f  56/81/26 38/82/26 57/83/26
f  58/84/27 27/85/27 59/86/27
f  37/87/22 40/88/22 36/89/22
f  39/90/22 20/91/22 38/92/22
f  9/93/28 13/94/28 6/95/28
f  24/96/29 3/97/29 1/98/29
f  14/99/22 3/100/22 24/101/22
f  15/102/30 6/103/30 60/104/30
f  1/105/31 2/106/31 13/107/31
f  15/1/7 15/1/7 6/1/7
f  5/108/32 60/109/32 2/110/32
f  4/2/2 16/111/2 5/3/2
f  6/5/33 61/112/33 7/6/33
f  8/7/4 17/113/4 9/8/4
f  62/114/34 2/106/31 1/105/31
f  62/114/35 1/105/35 3/115/35
f  50/116/36 56/117/36 3/115/36
f  56/117/36 62/114/34 3/115/36
f  11/10/5 54/118/37 12/11/5
f  12/11/5 50/116/36 3/115/36
f  10/9/38 13/107/38 11/10/38
f  13/107/31 9/119/39 11/10/5
f  12/11/5 3/115/36 10/9/5
f  15/14/40 6/120/40 13/12/40
f  13/12/41 10/121/41 14/13/41
f  16/15/7 4/122/7 17/16/7
f  18/18/42 22/123/42 19/19/42
f  22/23/9 18/124/43 63/125/43
f  18/124/43 55/126/44 63/125/43
f  57/127/45 30/128/45 20/21/9
f  30/128/45 21/22/9 20/21/9
f  22/23/9 63/125/43 20/21/9
f  61/129/46 6/103/30 15/102/30
f  61/129/47 15/102/47 14/25/47
f  23/24/10 51/130/48 61/129/46
f  29/131/49 58/132/49 60/104/30
f  58/132/49 49/133/50 60/104/30
f  60/104/51 49/133/51 24/26/51
f  23/24/10 61/129/46 14/25/10
f  5/134/52 29/131/49 60/104/30
f  49/133/50 23/24/10 24/26/10
f  4/28/11 30/128/53 64/135/53
f  30/128/53 57/127/54 64/135/53
f  55/126/55 18/124/55 25/29/11
f  18/124/55 17/27/11 25/29/11
f  4/28/11 64/135/53 25/29/11
f  9/8/56 17/113/56 18/18/56
f  8/136/57 7/137/57 26/30/13
f  7/137/57 53/138/58 26/30/13
f  59/139/59 28/140/59 27/31/13
f  28/140/59 16/32/13 27/31/13
f  8/136/57 26/30/13 16/32/13
f  5/3/60 16/111/60 28/33/60
f  2/4/61 62/141/61 30/35/61
f  31/36/7 43/142/7 32/37/7
f  33/39/4 32/143/4 34/40/4
f  48/144/62 28/140/62 36/42/16
f  28/140/62 59/139/63 36/42/16
f  53/138/64 7/137/64 37/43/16
f  7/137/64 35/44/16 37/43/16
f  48/144/62 36/42/16 35/44/16
f  28/33/65 48/145/65 31/45/65
f  41/146/1 62/114/1 38/46/1
f  62/114/1 56/117/1 38/46/1
f  54/118/1 11/10/1 39/47/1
f  11/10/1 19/48/1 39/47/1
f  41/146/1 38/46/1 19/48/1
f  7/6/66 61/112/66 33/39/66
f  33/51/19 61/129/67 52/147/67
f  61/129/67 51/130/68 52/147/67
f  58/132/69 29/131/69 40/49/19
f  29/131/69 31/50/19 40/49/19
f  33/51/19 52/147/67 40/49/19
f  30/35/70 62/141/70 41/52/70
f  42/54/21 34/148/21 32/55/21
f  44/57/1 47/149/1 45/58/1
f  41/52/2 45/150/2 47/60/2
f  21/50/22 47/56/22 44/55/22
f  19/19/4 22/123/4 44/62/4
f  35/64/22 34/151/22 42/58/22
f  31/45/2 48/145/2 42/66/2
f  19/23/7 46/152/7 45/68/7
f  26/70/7 27/153/7 49/71/7
f  50/73/23 64/72/71 25/71/23
f  52/76/24 37/154/24 53/77/24
f  53/77/24 26/155/72 51/75/24
f  26/155/72 23/156/73 51/75/24
f  63/157/74 39/158/74 55/80/25
f  39/158/74 54/78/25 55/80/25
f  54/78/25 12/159/75 25/79/25
f  38/82/26 20/160/76 57/83/26
f  57/83/77 64/161/77 56/81/77
f  64/161/78 50/162/78 56/81/26
f  36/163/79 40/164/79 59/86/27
f  40/164/79 58/84/27 59/86/27
f  58/84/27 49/165/80 27/85/27
f  37/87/22 52/166/81 40/88/22
f  39/90/22 63/167/22 20/91/22
f  1/98/82 2/168/82 60/169/82
f  60/169/83 24/96/83 1/98/83
f  14/99/22 10/170/84 3/100/22
f  6/103/30 5/134/52 60/104/30
f  60/104/85 24/26/85 15/102/85
f  24/26/86 14/25/86 15/102/86
f  2/106/31 9/119/39 13/107/31
f  13/107/87 10/9/87 1/105/87
f  10/9/88 3/115/88 1/105/88
f  15/1/7 14/1/7 15/1/7

