# File produced by Open Asset Import Library (http://www.assimp.sf.net)
# (assimp v5.2.0)

mtllib wide_angle_camera.mtl

# 76 vertex positions
v  -0.0244103484 0.0191168096 0.0170623008
v  -0.0244103484 -0.0318219587 -0.01706242
v  -0.0244103484 -0.0318219587 0.0170623008
v  -0.0212659091 -0.0339570008 0.0198787991
v  -0.0244103484 -0.0339570008 0.0170623008
v  -0.0212659091 -0.0339570008 0.0170623008
v  -0.0212659091 -0.0339570008 -0.0198789798
v  -0.0244103484 -0.0318219587 -0.0198789798
v  -0.0212659091 -0.0318219587 -0.0198789798
v  0.000663054874 -0.0145089598 0.0175071303
v  -0.00482933363 -0.0145089598 0.0175071303
v  -0.00482933363 -0.0165085103 0.0175071303
v  -0.0212659091 0.0191168096 -0.0198789798
v  -0.0244103484 0.0191168096 -0.01706242
v  -0.0212659091 0.0191168096 -0.01706242
v  -0.0244103484 0.0191168096 -0.0198789798
v  -0.0212659091 0.00547152711 -0.0198789798
v  0.00371052092 0.0101777297 -0.0150050502
v  0.000663054874 0.0150146401 -0.0101699801
v  0.00371052092 0.0150149399 -0.0101699801
v  0.00371052092 -0.0101777297 -0.0150050502
v  0.000663054874 -0.0150146401 -0.0101699801
v  0.000663054874 -0.0101777297 -0.0150050502
v  -0.00482933363 -0.0165085103 -0.0175072495
v  -0.0212659091 -0.0145089598 -0.0175072495
v  -0.00482933363 -0.0145089598 -0.0175072495
v  -0.0212659091 -0.0315098092 -0.0155070396
v  -0.00482933363 -0.0295099597 -0.0175070707
v  -0.00482933363 -0.0315098092 -0.0155070396
v  0.000663054874 -0.0165089909 -0.0155070396
v  0.000663054874 -0.0145089598 -0.0175072495
v  0.000663054874 0.0165089909 0.0155069204
v  0.000663054874 0.0101777297 0.0150049301
v  0.000663054874 0.0150146401 0.0101698004
v  -0.00482933363 -0.0295099597 0.0175071303
v  -0.00482933363 -0.0315098092 0.0155069204
v  -0.00482933363 -0.0295099597 0.0155069204
v  -0.00482933363 -0.0165085103 -0.0155070396
v  -0.00482933363 -0.0295099597 -0.0155070396
v  -0.0212659091 -0.0315098092 0.0155069204
v  0.000663054874 0.0165089909 -0.0155070396
v  -0.00482933363 0.0165085103 0.0155069204
v  0.000663054874 -0.0165089909 0.0155069204
v  -0.0212659091 0.0165085103 -0.0155070396
v  -0.00482933363 0.0145089598 -0.0175072495
v  -0.0212659091 0.0145089598 -0.0175072495
v  -0.00482933363 0.0165085103 -0.0155070396
v  -0.0212659091 0.0165085103 0.0155069204
v  0.00371052092 0.0150149399 0.0101698004
v  0.00371052092 -0.0150149399 0.0101698004
v  0.00371052092 -0.0150149399 -0.0101699801
v  -0.00482933363 0.0145089598 0.0175071303
v  -0.0212659091 0.0191168096 0.0170623008
v  -0.0244103484 0.0191168096 0.0198787991
v  -0.0212659091 0.0191168096 0.0198787991
v  0.000663054874 0.0145089598 0.0175071303
v  0.000663054874 0.0145089598 -0.0175072495
v  0.000663054874 -0.0150146401 0.0101698004
v  -0.0212659091 -0.0339570008 -0.01706242
v  -0.0244103484 -0.0339570008 -0.0198789798
v  -0.0244103484 -0.0339570008 -0.01706242
v  -0.0244103484 -0.0318219587 0.0198787991
v  -0.0244103484 -0.0339570008 0.0198787991
v  0.000663054874 0.0101777297 -0.0150050502
v  0.000663054874 -0.0101777297 0.0150049301
v  -0.0212659091 -0.0165085103 0.0175071303
v  -0.0212659091 -0.0145089598 0.0175071303
v  0.00371052092 0.0101777297 0.0150050502
v  0.00371052092 -0.0101777297 0.0150047503
v  -0.0212659091 0.00547152711 0.0198787991
v  -0.0212659091 -0.0318219587 0.0198787991
v  -0.00482933363 -0.0165085103 0.0155069204
v  -0.0212659091 -0.0295099597 -0.0175070707
v  -0.0212659091 -0.0165085103 -0.0175072495
v  -0.0212659091 -0.0295099597 0.0175071303
v  -0.0212659091 0.0145089598 0.0175071303

# 163 UV coordinates
vt 0.68073988 0.438806504 0
vt 0.377866805 0.0176525097 0
vt 0.68073982 0.0176525097 0
vt 0.673801482 0.671333373 0
vt 0.646780312 0.654713273 0
vt 0.674662828 0.654872 0
vt 0.912364602 0 0
vt 0.940273106 0.0176525097 0
vt 0.912364602 0.0176525097 0
vt 0.904361129 0.2923446 0
vt 0.855657578 0.292405009 0
vt 0.855106175 0.280715793 0
vt 0.972091496 0.462222904 0
vt 1 0.485509515 0
vt 0.972091496 0.485509515 0
vt 0.940273106 0.438806504 0
vt 0.912364602 0.325989306 0
vt 0.999786496 0.0399936996 0
vt 0.972738802 2.72580996e-06 0
vt 0.999786615 0 0
vt 0.999786615 0.208289504 0
vt 0.972738802 0.2482806 0
vt 0.972738802 0.208289504 0
vt 0.206986904 0.562835217 0
vt 0.352868915 0.579366982 0
vt 0.206986904 0.579366982 0
vt 0.352868915 0.438806504 0
vt 0.206986904 0.455341011 0
vt 0.206986904 0.438806504 0
vt 0.589725912 0.707612574 0
vt 0.645918906 0.711762905 0
vt 0.628167927 0.728300214 0
vt 0.352868915 0.455343992 0
vt 0.409061909 0.459494203 0
vt 0.366131812 0.499470204 0
vt 0.133140594 0.438806504 0
vt 0.150890201 0.455343902 0
vt 0.133140594 0.455343902 0
vt 0.158239305 0.579366982 0
vt 0.206986904 0.562835097 0
vt 0.133140698 0.728298783 0
vt 0.133140698 0.711762905 0
vt 0.150890201 0.711762905 0
vt 0.851520181 0.204710007 0
vt 0.70573771 0.181505203 0
vt 0.851486981 0.181324705 0
vt 0.713774502 0.000180427 0
vt 0.859523714 0 0
vt 0.70573771 0.727043808 0
vt 0.754485488 0.983462572 0
vt 0.705737829 0.983462572 0
vt 0 0.728300214 0
vt 0.0177467391 0.711762905 0
vt 0.0177467391 0.728300214 0
vt 0.90432781 0.268958509 0
vt 0.86366123 0.0876967907 0
vt 0.912364483 0.0876337215 0
vt 0.90036732 0.727043808 0
vt 0.754485428 0.71050638 0
vt 0.90036732 0.71050638 0
vt 0.754485428 0.727043808 0
vt 0.900367379 0.983462572 0
vt 0.927415073 0.918649673 0
vt 0.900367379 0.750483274 0
vt 0.927415073 0.750483274 0
vt 0.9672966 0.118910901 0
vt 0.945715725 1.55540999e-06 0
vt 0.972738802 0 0
vt 0.377866805 0.438806504 0
vt 0.352868915 0.0176525097 0
vt 0.754485488 1 0
vt 0.972091615 0.767647922 0
vt 1 0.790934384 0
vt 0.972091615 0.790934384 0
vt 1 0.767647922 0
vt 0.366131902 0.667636693 0
vt 0.705737829 1 0
vt 0.70573771 0.71050638 0
vt 0.632655919 0.499470204 0
vt 0.632655978 0.667636693 0
vt 0.685099304 0.455426812 0
vt 0.658078015 0.438806504 0
vt 0.68596071 0.43896541 0
vt 0.657216728 0.455267996 0
vt 0.377866805 0 0
vt 0.68073982 0 0
vt 0.70573771 0.0176525097 0
vt 0.70573771 0 0
vt 0.409061909 0.707612693 0
vt 0.352869004 0.711763024 0
vt 0.206986904 0.819283307 0
vt 0.158239305 0.819283307 0
vt 0.912364483 0.46198231 0
vt 0.645918787 0.455343992 0
vt 0.589725912 0.459494203 0
vt 0.628167927 0.438806504 0
vt 0.370619893 0.728300273 0
vt 0.709356904 0.280896306 0
vt 0.86366111 0.462042511 0
vt 0.709908426 0.292585403 0
vt 0.352868915 0.819283307 0
vt 0.972738802 0.0399936996 0
vt 0.972738802 0.294462591 0
vt 0.940273106 0.175457701 0
vt 0.967296302 0.175457105 0
vt 0.352868915 0 0
vt 0.682834506 0.901899576 0
vt 0.658078015 0.981534421 0
vt 0.646408021 0.683659911 0
vt 0.705740213 0.502216816 0
vt 0.748652577 0.462222993 0
vt 0.972091377 0.502216816 0
vt 0.674290597 0.683818698 0
vt 0.645918906 0.671174705 0
vt 0.0177466199 0.455343992 0
vt 0.0177466199 0.438806504 0
vt 0.352868915 0.455341101 0
vt 0.352868915 0.562835217 0
vt 0.927415073 0.71050638 0
vt 0.900367379 0.710507274 0
vt 0.940273523 0.118912503 0
vt 0.331817299 0.0367674194 0
vt 0.327870995 0 0
vt 0.352868795 0 0
vt 0.0388026796 0.0202330295 0
vt 0.314066112 0.0202330295 0
vt 0.0210499708 0.036767479 0
vt 0.0249978304 0 0
vt 0 0.0176524501 0
vt 0 0 0
vt 0.0210499708 0.160793394 0
vt 0.0210499708 0.144261599 0
vt 0.0210499708 0.400709689 0
vt 0 0.325989306 0
vt 0.0249978807 0.438806504 0
vt 0 0.438806504 0
vt 0.314066201 0.417241395 0
vt 0.0388027392 0.417241514 0
vt 0.331818908 0.400709689 0
vt 0.327870995 0.438806504 0
vt 0.352868915 0.325989306 0
vt 0.331818789 0.160793394 0
vt 0.352868795 0.0176524501 0
vt 0.331818789 0.144261599 0
vt 0.705737829 0.438806504 0
vt 0.940273106 0 0
vt 0.855624497 0.269021511 0
vt 1 0.462222904 0
vt 0.912364602 0.438806504 0
vt 0.999786615 0.248283297 0
vt 0.370619804 0.438806713 0
vt 0.158239201 0.562831223 0
vt 0.705771029 0.2048904 0
vt 0.900367379 0.918649673 0
vt 0.900367379 1 0
vt 0.71791178 0.462222904 0
vt 0.945715606 0.294461608 0
vt 0.68596071 0.981693208 0
vt 0.929177821 0.462222904 0
vt 0.972091496 0.670512617 0
vt 0.70573771 0.670512617 0
vt 0.929177821 0.71050638 0
vt 0.748652577 0.71050638 0

# 43 vertex normals
vn -1 0 0
vn 0 -1 0
vn 0 0 -1
vn 0 0 1
vn 0 1 0
vn -7.64497963e-05 0.706947327 -0.707266271
vn 5.58554984e-06 -0.706973314 -0.707240283
vn 0 -0.707139015 -0.707074523
vn 1 0 0
vn 0 -0.707226217 -0.706987381
vn 0 -0.707169712 0.707043886
vn -8.67945928e-05 1 0
vn -8.61111985e-05 -1 -0
vn 0 0.707227409 -0.706986308
vn -0.000107992004 1 0
vn -0.000108931003 -1 -0
vn 0 0.707226992 0.706986606
vn 0 0.707227588 0.70698601
vn -6.13523007e-05 0.70714277 -0.707070827
vn 1 0 1.33086004e-07
vn 7.6401102e-06 0 -1
vn 5.37863998e-05 -1.38404994e-05 1
vn 0 -1.36190993e-05 -1
vn -2.72296002e-05 0.706973314 0.707240403
vn -7.71490959e-05 -0.706937194 0.707276404
vn 1 0 -1.43685998e-06
vn 1 0 -1.69153998e-06
vn -8.60986038e-05 -1 -0
vn 0.249308303 -0.684813976 0.684744716
vn 5.58554984e-06 0.706973314 -0.707240403
vn -7.71479972e-05 -0.706947327 -0.707266271
vn 0 -0.707138896 -0.707074702
vn -6.08838964e-05 -0.707142115 -0.707071483
vn 0 -0.707170129 0.707043409
vn 0 0.707226992 -0.706986606
vn -0.000108931003 1 0
vn 0 0.707227409 0.706986308
vn -6.13523007e-05 0.707142293 0.707071304
vn 0 0.707227588 -0.70698601
vn -3.85061976e-05 0 1
vn 0 -1.33467001e-05 -1
vn -7.64486977e-05 0.706957817 0.707255781
vn 3.80515994e-05 -0.706973314 0.707240283

# Mesh 'Cube_001-mesh' with 148 faces
g Cube_001-mesh
usemtl wide_angle_camera
f  1/1/1 2/2/1 3/3/1
f  4/4/2 5/5/2 6/6/2
f  7/7/3 8/8/3 9/9/3
f  10/10/4 11/11/4 12/12/4
f  13/13/5 14/14/5 15/15/5
f  16/16/3 17/17/3 8/8/3
f  18/18/6 19/19/6 20/20/6
f  21/21/7 22/22/7 23/23/7
f  24/24/3 25/25/3 26/26/3
f  27/27/8 28/28/8 29/29/8
f  23/30/9 30/31/9 31/32/9
f  32/33/9 33/34/9 34/35/9
f  35/36/9 36/37/9 37/38/9
f  31/39/10 38/40/10 26/26/10
f  28/41/9 39/42/9 29/43/9
f  35/44/11 40/45/11 36/46/11
f  37/38/9 29/43/9 39/42/9
f  36/46/2 27/47/2 29/48/2
f  41/49/12 42/50/12 32/51/12
f  26/52/9 38/53/9 24/54/9
f  43/55/13 38/56/13 30/57/13
f  44/58/14 45/59/14 46/60/14
f  47/61/5 48/62/5 42/50/5
f  20/63/15 34/64/15 49/65/15
f  50/66/16 22/67/16 51/68/16
f  14/69/1 8/70/1 2/2/1
f  48/62/17 52/71/17 42/50/17
f  53/72/5 54/73/5 55/74/5
f  15/15/5 1/75/5 53/72/5
f  19/76/9 32/33/9 34/35/9
f  56/77/18 42/50/17 52/71/17
f  57/78/19 47/61/19 41/49/19
f  58/79/9 30/31/9 22/80/9
f  59/81/2 60/82/2 7/83/2
f  6/6/2 61/84/2 59/81/2
f  3/3/1 61/85/1 5/86/1
f  62/87/1 5/86/1 63/88/1
f  64/89/9 41/90/9 19/76/9
f  31/39/3 45/91/3 57/92/3
f  56/93/4 11/11/4 10/10/4
f  43/94/20 65/95/20 10/96/20
f  33/34/9 10/96/20 65/95/20
f  64/89/9 31/32/9 57/97/9
f  11/11/4 66/98/4 12/12/4
f  52/99/4 67/100/4 11/11/4
f  26/26/3 46/101/3 45/91/3
f  21/21/21 64/102/21 18/18/21
f  68/103/22 65/104/22 69/105/22
f  2/2/1 60/106/1 61/85/1
f  70/107/4 54/108/4 62/109/4
f  69/110/9 50/111/9 21/112/9
f  71/113/4 63/114/4 4/4/4
f  72/115/9 39/42/9 38/53/9
f  38/53/9 28/41/9 24/54/9
f  66/98/4 35/44/4 12/12/4
f  12/116/9 37/38/9 72/115/9
f  24/24/23 73/117/23 74/118/23
f  68/119/24 34/64/24 33/120/24
f  69/105/25 58/121/25 50/66/25
f  73/122/9 59/123/9 7/124/9
f  40/125/9 59/123/9 27/126/9
f  75/127/9 6/128/9 40/125/9
f  75/127/9 71/129/26 4/130/26
f  67/131/9 71/129/26 66/132/9
f  76/133/27 70/134/27 67/131/9
f  76/133/27 53/135/9 55/136/9
f  44/137/9 53/135/9 48/138/9
f  46/139/9 15/140/9 44/137/9
f  46/139/9 17/141/9 13/27/9
f  25/142/9 9/143/9 17/141/9
f  73/122/9 9/143/9 74/144/9
f  54/145/1 3/3/1 62/87/1
f  1/1/1 14/69/1 2/2/1
f  4/4/2 63/114/2 5/5/2
f  7/7/3 60/146/3 8/8/3
f  72/147/28 43/55/13 12/12/28
f  43/55/29 10/10/29 12/12/29
f  13/13/5 16/148/5 14/14/5
f  13/149/3 17/17/3 16/16/3
f  17/17/3 9/9/3 8/8/3
f  18/18/30 64/102/30 19/19/30
f  21/21/31 51/150/31 22/22/31
f  24/24/3 74/118/3 25/25/3
f  27/27/8 73/117/32 28/28/8
f  23/30/9 22/80/9 30/31/9
f  32/33/9 56/151/20 33/34/9
f  31/39/33 30/152/33 38/40/33
f  35/44/11 75/153/34 40/45/11
f  37/38/9 36/37/9 29/43/9
f  36/46/2 40/45/2 27/47/2
f  41/49/12 47/61/12 42/50/12
f  43/55/13 72/147/28 38/56/13
f  44/58/14 47/61/35 45/59/14
f  47/61/5 44/58/5 48/62/5
f  20/63/15 19/154/36 34/64/15
f  50/66/16 58/121/16 22/67/16
f  14/69/1 16/27/1 8/70/1
f  48/62/17 76/155/37 52/71/17
f  53/72/5 1/75/5 54/73/5
f  15/15/5 14/14/5 1/75/5
f  19/76/9 41/90/9 32/33/9
f  56/77/38 32/51/38 42/50/38
f  57/78/39 45/59/14 47/61/35
f  58/79/9 43/94/20 30/31/9
f  59/81/2 61/84/2 60/82/2
f  6/6/2 5/5/2 61/84/2
f  3/3/1 2/2/1 61/85/1
f  62/87/1 3/3/1 5/86/1
f  64/89/9 57/97/9 41/90/9
f  31/39/3 26/26/3 45/91/3
f  56/93/4 52/99/4 11/11/4
f  43/94/20 58/79/9 65/95/20
f  33/34/9 56/151/20 10/96/20
f  64/89/9 23/30/9 31/32/9
f  11/11/4 67/100/4 66/98/4
f  52/99/4 76/156/4 67/100/4
f  26/26/3 25/25/3 46/101/3
f  21/21/21 23/23/21 64/102/21
f  68/103/40 33/157/40 65/104/40
f  2/2/1 8/70/1 60/106/1
f  62/109/4 71/113/4 70/107/4
f  70/107/4 55/158/4 54/108/4
f  50/111/9 51/159/9 21/112/9
f  21/112/9 18/160/9 68/161/9
f  18/160/9 20/162/9 68/161/9
f  20/162/9 49/163/9 68/161/9
f  68/161/9 69/110/9 21/112/9
f  71/113/4 62/109/4 63/114/4
f  72/115/9 37/38/9 39/42/9
f  38/53/9 39/42/9 28/41/9
f  66/98/4 75/153/4 35/44/4
f  12/116/9 35/36/9 37/38/9
f  24/24/23 28/28/41 73/117/23
f  68/119/42 49/65/42 34/64/42
f  69/105/43 65/104/43 58/121/43
f  73/122/9 27/126/9 59/123/9
f  40/125/9 6/128/9 59/123/9
f  75/127/9 4/130/26 6/128/9
f  75/127/9 66/132/9 71/129/26
f  67/131/9 70/134/27 71/129/26
f  76/133/27 55/136/9 70/134/27
f  76/133/27 48/138/9 53/135/9
f  44/137/9 15/140/9 53/135/9
f  46/139/9 13/27/9 15/140/9
f  46/139/9 25/142/9 17/141/9
f  25/142/9 74/144/9 9/143/9
f  73/122/9 7/124/9 9/143/9
f  54/145/1 1/1/1 3/3/1

